PathFileType  4	(X/Y/Z) C:\Users\antoi\Documents\MyRepositories\mobilecap\ResultsAnalysis
DataRate	CameraRate	NumFrames	NumMarkers	Units	OrigDataRate	OrigDataStartFrame	OrigNumFrames
100.0	100.0	6	51	mm	100.0	1	1328
Frame#	Time	r_knee			r_shank_antsup			r_ankle			r_calc			r_5meta			r_toe			L_knee			L_shank_antsup			L_ankle			L_calc			L_5meta			L_toe			r_sh2			r_sh3			r_sh4			L_sh2			L_sh3			r_thigh1			r_thigh2			r_thigh3			r_thigh4			r_thigh5			L_thigh1			L_thigh2			L_thigh3			L_thigh4			r.ASIS			r.PSIS			L.ASIS			L.PSIS			C7			R_Shoulder			L_Shoulder			R_Sternum			L_Sternum			R_humerus			R_elbow_med			R_elbow_lat			R_forearm			R_wrist_radius			R_wrist_ulna			L_humerus			L_elbow_med			L_elbow_lat			L_forearm			L_wrist_radius			L_wrist_ulna			R_HJC			L_HJC			R_HJC_reg			L_HJC_reg			
		X1	Y1	Z1	X2	Y2	Z2	X3	Y3	Z3	X4	Y4	Z4	X5	Y5	Z5	X6	Y6	Z6	X7	Y7	Z7	X8	Y8	Z8	X9	Y9	Z9	X10	Y10	Z10	X11	Y11	Z11	X12	Y12	Z12	X13	Y13	Z13	X14	Y14	Z14	X15	Y15	Z15	X16	Y16	Z16	X17	Y17	Z17	X18	Y18	Z18	X19	Y19	Z19	X20	Y20	Z20	X21	Y21	Z21	X22	Y22	Z22	X23	Y23	Z23	X24	Y24	Z24	X25	Y25	Z25	X26	Y26	Z26	X27	Y27	Z27	X28	Y28	Z28	X29	Y29	Z29	X30	Y30	Z30	X31	Y31	Z31	X32	Y32	Z32	X33	Y33	Z33	X34	Y34	Z34	X35	Y35	Z35	X36	Y36	Z36	X37	Y37	Z37	X38	Y38	Z38	X39	Y39	Z39	X40	Y40	Z40	X41	Y41	Z41	X42	Y42	Z42	X43	Y43	Z43	X44	Y44	Z44	X45	Y45	Z45	X46	Y46	Z46	X47	Y47	Z47	X48	Y48	Z48	X49	Y49	Z49	X50	Y50	Z50	X51	Y51	Z51	

1	0.00000000	-185.00259	520.46117	-360.44667	-127.30223	402.31896	-376.16721	-283.74337	102.26622	-405.61849	-352.33136	68.34473	-454.67670	-154.83941	38.68855	-359.37970	-116.64798	60.64815	-432.49139	-176.93666	513.65693	-924.35848	-115.99172	413.17340	-912.70201	-277.33220	101.40179	-942.96530	-351.06852	71.02583	-903.00434	-137.99687	35.25079	-946.44478	-116.90088	58.81206	-873.66729	-151.37211	292.76741	-406.19637	-192.46358	402.65286	-333.05472	-207.03732	286.20293	-344.14353	-191.73333	434.00532	-957.22539	-198.21642	315.09274	-979.93648	-401.07205	614.94935	-464.22178	-292.35011	623.00161	-439.43451	-281.32797	603.35985	-377.04854	-417.41139	550.49687	-372.75586	-298.62405	554.27551	-354.98584	-417.84172	599.00535	-850.87249	-283.07210	611.55037	-876.81017	-422.98875	510.76364	-920.38518	-285.70628	517.43284	-938.56567	-527.27220	595.01806	-533.63349	-706.20799	596.07468	-605.08753	-495.66753	586.25373	-753.32742	-703.66690	595.83345	-703.19066	-574.21731	1097.93455	-672.86111	-503.40611	1014.43093	-482.52751	-488.88120	1016.12893	-840.21728	-457.36991	988.57399	-645.57295	-459.91224	983.57999	-686.79656	-515.59726	846.51582	-405.07548	-636.27231	643.79346	-431.72618	-592.29470	665.28603	-350.77076	-462.50069	722.62377	-437.89746	-371.57199	748.08570	-504.40129	-356.52493	707.78119	-505.09880	-490.86260	840.44019	-920.46455	-616.67785	636.97924	-923.13536	-549.14514	656.42770	-978.77567	-458.79295	723.65186	-862.57539	-368.80296	743.13578	-792.76659	-356.20631	696.69406	-793.38775	-582.84255	503.45386	-545.89653	-560.50138	486.39690	-757.42911	-570.48538	513.67858	-564.19016	-566.68926	513.31821	-710.74540	
2	0.01000000	-185.01523	520.39531	-360.45894	-127.32618	402.30674	-376.18510	-283.73331	102.27847	-405.66417	-352.38088	68.24602	-454.63938	-154.83640	38.72813	-359.39884	-116.64910	60.69292	-432.51252	-176.94649	513.65701	-924.35850	-115.96007	413.17740	-912.69456	-277.31452	101.44704	-943.03217	-351.07339	71.04871	-903.07613	-137.99565	35.23646	-946.44510	-116.90020	58.81532	-873.65254	-151.39385	292.87663	-406.28549	-192.58860	402.63978	-333.10060	-207.03710	286.05768	-344.36074	-191.74604	434.05196	-957.17343	-198.19696	315.09563	-979.93134	-401.15911	614.94820	-464.25960	-292.31466	623.04228	-439.41205	-281.39978	603.37752	-377.09277	-417.25872	550.53132	-372.77269	-298.70528	554.25568	-355.10611	-418.04076	598.67328	-850.24277	-283.07931	611.55361	-876.80323	-422.98221	510.75047	-920.39987	-285.70240	517.42635	-938.57546	-527.33477	595.01924	-533.71665	-706.22866	596.02365	-605.35875	-495.59331	584.96800	-752.60996	-703.62976	595.67365	-703.28341	-574.22941	1097.93413	-672.77995	-503.40200	1014.33976	-482.47195	-488.93247	1016.06142	-840.15204	-457.38832	988.48151	-645.49264	-459.96879	983.50383	-686.81340	-515.59735	846.57591	-404.94513	-636.30451	643.88104	-431.64874	-592.25357	665.17127	-350.76638	-462.46203	722.59391	-437.83398	-371.57498	748.00488	-504.36335	-356.50267	707.81138	-505.06996	-490.89079	840.43370	-920.41986	-616.55878	637.01550	-923.22578	-549.09292	656.41892	-978.76275	-458.77168	723.69560	-862.55710	-368.76228	743.21083	-792.79825	-356.18998	696.75866	-793.39847	-583.29437	503.51194	-545.34245	-560.63375	485.34177	-756.74754	-570.54425	513.34740	-564.06272	-566.66743	512.82555	-710.14214	
3	0.02000000	-185.08256	520.33186	-360.61650	-127.35287	402.29084	-376.18939	-283.69420	102.26939	-405.66005	-352.39769	68.23456	-454.64318	-154.80875	38.73034	-359.39861	-116.65017	60.71112	-432.49940	-176.97314	513.64458	-924.31544	-115.95758	413.17918	-912.67354	-277.29418	101.46584	-943.05930	-351.07012	71.06981	-903.10806	-137.99242	35.23194	-946.45144	-116.89802	58.81291	-873.65440	-151.42338	292.94345	-406.34761	-192.61653	402.67630	-333.13703	-207.10589	286.07259	-344.45793	-191.76074	434.08052	-957.12109	-198.19665	315.11654	-979.91768	-401.11619	615.05572	-464.25050	-292.30993	623.03782	-439.45175	-281.45496	603.38131	-377.15321	-417.19639	550.55534	-372.76782	-298.72945	554.29473	-355.13664	-418.04681	598.69543	-850.32700	-283.08888	611.53956	-876.79546	-422.98103	510.74493	-920.42054	-285.70802	517.40720	-938.56894	-527.33467	595.24128	-533.66217	-706.22073	595.93330	-605.41983	-495.65596	585.07801	-752.72706	-703.62704	595.60874	-703.31870	-574.24981	1097.91476	-672.76775	-503.34986	1014.37147	-482.35063	-488.93066	1015.97828	-840.07083	-457.37461	988.42391	-645.46581	-459.97791	983.43139	-686.79600	-515.56277	846.59793	-404.82484	-636.37295	644.15682	-431.42200	-592.17279	665.16238	-350.67018	-462.38725	722.59194	-437.84789	-371.57333	747.98729	-504.40961	-356.45628	707.82435	-505.05438	-490.86748	840.44122	-920.44266	-616.41952	637.03024	-923.34304	-548.96362	656.44307	-978.84349	-458.70761	723.73619	-862.56066	-368.73547	743.26413	-792.72418	-356.13368	696.83839	-793.38233	-583.18676	503.64220	-545.33657	-560.52813	485.38582	-756.73561	-570.42183	513.34012	-564.05248	-566.54892	512.85571	-710.24076	
4	0.03000000	-185.20510	520.31569	-360.89027	-127.38717	402.31186	-376.21471	-283.63405	102.27693	-405.60234	-352.39469	68.26011	-454.64630	-154.79177	38.71776	-359.39598	-116.62279	60.74580	-432.48372	-176.99930	513.61661	-924.25000	-115.99126	413.22107	-912.65938	-277.27330	101.47386	-943.05607	-351.07059	71.07446	-903.08742	-137.99042	35.23055	-946.45597	-116.89447	58.81351	-873.66609	-151.47432	292.95365	-406.44670	-192.58593	402.74925	-333.16594	-207.16385	286.18914	-344.46818	-191.80506	434.10975	-957.06400	-198.22393	315.15850	-979.88658	-401.10750	615.27200	-464.20175	-292.33733	623.01593	-439.53670	-281.47389	603.37780	-377.20706	-417.27429	550.58603	-372.79743	-298.70777	554.36396	-355.11182	-417.96389	598.92759	-850.77394	-283.10823	611.52278	-876.80724	-422.99163	510.73279	-920.43779	-285.76209	517.44311	-938.65451	-527.44107	595.69024	-533.46956	-706.23379	595.81422	-605.33525	-495.79649	585.95187	-753.26397	-703.62296	595.53549	-703.35839	-574.22645	1097.87096	-672.75754	-503.22728	1014.47868	-482.17644	-488.88605	1015.89198	-839.99141	-457.33157	988.34929	-645.40822	-459.91480	983.34482	-686.68789	-515.47353	846.60543	-404.68155	-636.29035	644.49608	-431.16478	-591.97012	665.23337	-350.45158	-462.28359	722.61936	-437.90943	-371.52233	748.07848	-504.48469	-356.41769	707.81544	-505.09993	-490.79272	840.47953	-920.50220	-616.19904	637.02315	-923.50212	-548.69925	656.54063	-979.06383	-458.57064	723.80085	-862.58731	-368.95988	743.06296	-792.36864	-356.00153	696.93346	-793.32810	-582.81980	503.88687	-545.54928	-560.24222	486.00382	-756.98909	-570.27001	513.56735	-564.02982	-566.36406	513.15025	-710.67774	
5	0.04000000	-185.33068	520.41167	-361.16679	-127.45337	402.38451	-376.29600	-283.58319	102.33366	-405.51394	-352.42780	68.23039	-454.60624	-154.81218	38.73120	-359.40939	-116.60243	60.82116	-432.48401	-177.04953	513.61203	-924.21325	-116.06098	413.32027	-912.66547	-277.24487	101.50388	-943.05313	-351.08097	71.07584	-903.05555	-137.99152	35.23165	-946.44694	-116.89127	58.81611	-873.66480	-151.56196	292.94964	-406.64945	-192.59666	402.85491	-333.19489	-207.20638	286.30468	-344.47418	-191.88718	434.17403	-957.04950	-198.26740	315.20637	-979.79426	-401.31931	615.51492	-464.08680	-292.42049	623.07352	-439.57230	-281.49146	603.39184	-377.25058	-417.44407	550.64680	-372.85732	-298.72498	554.37175	-355.15588	-418.01422	598.98969	-850.78749	-283.14668	611.53368	-876.83679	-423.02407	510.70668	-920.43653	-285.86613	517.57305	-938.88977	-527.79411	596.17925	-533.16640	-706.31687	595.77742	-605.35177	-495.86711	586.06754	-753.28780	-703.61366	595.44121	-703.40768	-574.11162	1097.81578	-672.70403	-503.04167	1014.54534	-481.99923	-488.81433	1015.84576	-839.95171	-457.23551	988.21871	-645.27636	-459.80123	983.24459	-686.51715	-515.30424	846.67822	-404.47091	-635.89767	644.68243	-430.99344	-591.59664	665.27232	-350.18895	-462.14438	722.70381	-437.88373	-371.39345	748.25250	-504.50845	-356.31841	707.87872	-505.09947	-490.68111	840.56668	-920.58665	-615.84378	637.00872	-923.72362	-548.27602	656.67160	-979.30495	-458.34459	723.91328	-862.63523	-369.33717	742.72724	-791.87427	-355.78320	697.07340	-793.30976	-582.88670	504.22822	-545.31867	-560.07099	486.02294	-756.70369	-570.31129	513.65042	-563.76609	-566.26161	513.14679	-710.66220	
6	0.05000000	-185.46470	520.58148	-361.47221	-127.56632	402.45923	-376.44067	-283.57733	102.38699	-405.40543	-352.52555	68.17533	-454.56333	-154.83277	38.76049	-359.42768	-116.64151	60.91039	-432.45453	-177.26897	513.65026	-924.03430	-116.21892	413.44463	-912.60323	-277.20702	101.55207	-943.05245	-351.09023	71.10018	-903.05886	-137.99042	35.24173	-946.42807	-116.89132	58.80442	-873.64178	-151.68165	292.99552	-406.88980	-192.69253	402.98795	-333.29597	-207.31931	286.41852	-344.52919	-191.99553	434.27986	-957.12980	-198.32882	315.24238	-979.57728	-401.63732	615.80591	-463.85235	-292.59871	623.23629	-439.51600	-281.58424	603.43200	-377.33819	-417.56191	550.70435	-372.88052	-298.84584	554.31482	-355.33459	-418.24385	598.82419	-850.37802	-283.23401	611.59030	-876.83377	-423.06676	510.70499	-920.47766	-285.96592	517.72898	-939.12588	-528.26263	596.74365	-532.73290	-706.42194	595.86855	-605.52126	-495.94363	585.25508	-752.84589	-703.62645	595.41869	-703.41849	-573.91122	1097.74582	-672.65082	-502.80623	1014.58071	-481.83308	-488.67656	1015.84541	-839.94197	-457.05788	988.09502	-645.17863	-459.64496	983.14326	-686.40929	-515.04406	846.82851	-404.23012	-635.32863	644.65085	-430.79641	-591.09789	665.29669	-349.93138	-461.88266	722.89622	-437.66510	-371.19367	748.45965	-504.48801	-356.01128	708.13657	-504.90007	-490.51288	840.71864	-920.74364	-615.35513	636.97891	-923.99692	-547.70060	656.74810	-979.43488	-458.01048	724.08669	-862.69481	-369.41079	742.70115	-791.57243	-355.48428	697.31038	-793.40160	-583.38972	504.71300	-544.60937	-560.12597	485.34066	-755.84094	-570.45390	513.46338	-563.25112	-566.25726	512.78811	-710.21927	
